<mxfile host="app.diagrams.net" agent="Mozilla/5.0 (X11; Linux x86_64) AppleWebKit/537.36 (KHTML, like Gecko) Chrome/130.0.0.0 Safari/537.36" version="24.9.0">
  <diagram name="Page-1" id="52a04d89-c75d-2922-d76d-85b35f80e030">
    <mxGraphModel dx="1364" dy="1649" grid="1" gridSize="10" guides="1" tooltips="1" connect="1" arrows="1" fold="1" page="1" pageScale="1" pageWidth="1100" pageHeight="850" background="none" math="0" shadow="0">
      <root>
        <mxCell id="0" />
        <mxCell id="1" parent="0" />
        <mxCell id="ulJ9a3InAOpKc86OXInD-52" value="" style="whiteSpace=wrap;html=1;aspect=fixed;" vertex="1" parent="1">
          <mxGeometry x="10" y="-60" width="970" height="970" as="geometry" />
        </mxCell>
        <mxCell id="ulJ9a3InAOpKc86OXInD-1" value="Users Database" style="html=1;rounded=0;shadow=0;comic=0;labelBackgroundColor=none;strokeWidth=2;fontFamily=Verdana;fontSize=12;align=center;shape=mxgraph.ios7ui.horLines;" vertex="1" parent="1">
          <mxGeometry x="750" y="62" width="137.5" height="58" as="geometry" />
        </mxCell>
        <mxCell id="ulJ9a3InAOpKc86OXInD-34" style="edgeStyle=orthogonalEdgeStyle;rounded=0;orthogonalLoop=1;jettySize=auto;html=1;exitX=1;exitY=0.5;exitDx=0;exitDy=0;entryX=0;entryY=0.5;entryDx=0;entryDy=0;" edge="1" parent="1" source="ulJ9a3InAOpKc86OXInD-2" target="ulJ9a3InAOpKc86OXInD-3">
          <mxGeometry relative="1" as="geometry" />
        </mxCell>
        <mxCell id="ulJ9a3InAOpKc86OXInD-40" style="edgeStyle=orthogonalEdgeStyle;rounded=0;orthogonalLoop=1;jettySize=auto;html=1;exitX=0;exitY=1;exitDx=0;exitDy=0;entryX=0;entryY=0.5;entryDx=0;entryDy=0;" edge="1" parent="1" source="ulJ9a3InAOpKc86OXInD-2" target="ulJ9a3InAOpKc86OXInD-11">
          <mxGeometry relative="1" as="geometry">
            <Array as="points">
              <mxPoint x="40" y="112" />
              <mxPoint x="40" y="319" />
            </Array>
          </mxGeometry>
        </mxCell>
        <mxCell id="ulJ9a3InAOpKc86OXInD-48" style="edgeStyle=orthogonalEdgeStyle;rounded=0;orthogonalLoop=1;jettySize=auto;html=1;exitX=1;exitY=0.75;exitDx=0;exitDy=0;" edge="1" parent="1" source="ulJ9a3InAOpKc86OXInD-2" target="ulJ9a3InAOpKc86OXInD-22">
          <mxGeometry relative="1" as="geometry">
            <mxPoint x="370" y="690" as="targetPoint" />
          </mxGeometry>
        </mxCell>
        <mxCell id="ulJ9a3InAOpKc86OXInD-2" value="Guste" style="whiteSpace=wrap;html=1;rounded=0;shadow=0;comic=0;labelBackgroundColor=none;strokeWidth=1;fontFamily=Verdana;fontSize=12;align=center;" vertex="1" parent="1">
          <mxGeometry x="60" y="62" width="120" height="50" as="geometry" />
        </mxCell>
        <mxCell id="ulJ9a3InAOpKc86OXInD-3" value="1.1" style="swimlane;html=1;fontStyle=0;childLayout=stackLayout;horizontal=1;startSize=26;fillColor=#e0e0e0;horizontalStack=0;resizeParent=1;resizeLast=0;collapsible=1;marginBottom=0;swimlaneFillColor=#ffffff;align=center;rounded=1;shadow=0;comic=0;labelBackgroundColor=none;strokeWidth=1;fontFamily=Verdana;fontSize=12" vertex="1" parent="1">
          <mxGeometry x="380" y="60" width="140" height="52" as="geometry" />
        </mxCell>
        <mxCell id="ulJ9a3InAOpKc86OXInD-4" value="User Management" style="text;html=1;strokeColor=none;fillColor=none;spacingLeft=4;spacingRight=4;whiteSpace=wrap;overflow=hidden;rotatable=0;points=[[0,0.5],[1,0.5]];portConstraint=eastwest;align=center;" vertex="1" parent="ulJ9a3InAOpKc86OXInD-3">
          <mxGeometry y="26" width="140" height="26" as="geometry" />
        </mxCell>
        <mxCell id="ulJ9a3InAOpKc86OXInD-36" style="edgeStyle=orthogonalEdgeStyle;rounded=0;orthogonalLoop=1;jettySize=auto;html=1;exitX=1;exitY=0.5;exitDx=0;exitDy=0;entryX=0;entryY=0.5;entryDx=0;entryDy=0;" edge="1" parent="1" source="ulJ9a3InAOpKc86OXInD-5" target="ulJ9a3InAOpKc86OXInD-4">
          <mxGeometry relative="1" as="geometry">
            <Array as="points">
              <mxPoint x="270" y="255" />
              <mxPoint x="270" y="100" />
            </Array>
          </mxGeometry>
        </mxCell>
        <mxCell id="ulJ9a3InAOpKc86OXInD-49" style="edgeStyle=orthogonalEdgeStyle;rounded=0;orthogonalLoop=1;jettySize=auto;html=1;exitX=0.75;exitY=1;exitDx=0;exitDy=0;entryX=0.193;entryY=0.033;entryDx=0;entryDy=0;entryPerimeter=0;" edge="1" parent="1" source="ulJ9a3InAOpKc86OXInD-5" target="ulJ9a3InAOpKc86OXInD-25">
          <mxGeometry relative="1" as="geometry">
            <mxPoint x="610" y="750" as="targetPoint" />
          </mxGeometry>
        </mxCell>
        <mxCell id="ulJ9a3InAOpKc86OXInD-5" value="Hosts" style="whiteSpace=wrap;html=1;rounded=0;shadow=0;comic=0;labelBackgroundColor=none;strokeWidth=1;fontFamily=Verdana;fontSize=12;align=center;" vertex="1" parent="1">
          <mxGeometry x="60" y="230" width="120" height="50" as="geometry" />
        </mxCell>
        <mxCell id="ulJ9a3InAOpKc86OXInD-50" style="edgeStyle=orthogonalEdgeStyle;rounded=0;orthogonalLoop=1;jettySize=auto;html=1;exitX=1;exitY=0.25;exitDx=0;exitDy=0;entryX=0.5;entryY=0;entryDx=0;entryDy=0;" edge="1" parent="1" source="ulJ9a3InAOpKc86OXInD-6" target="ulJ9a3InAOpKc86OXInD-25">
          <mxGeometry relative="1" as="geometry" />
        </mxCell>
        <mxCell id="ulJ9a3InAOpKc86OXInD-6" value="Admin" style="whiteSpace=wrap;html=1;rounded=0;shadow=0;comic=0;labelBackgroundColor=none;strokeWidth=1;fontFamily=Verdana;fontSize=12;align=center;" vertex="1" parent="1">
          <mxGeometry x="70" y="460" width="120" height="50" as="geometry" />
        </mxCell>
        <mxCell id="ulJ9a3InAOpKc86OXInD-7" value="1.2" style="swimlane;html=1;fontStyle=0;childLayout=stackLayout;horizontal=1;startSize=26;fillColor=#e0e0e0;horizontalStack=0;resizeParent=1;resizeLast=0;collapsible=1;marginBottom=0;swimlaneFillColor=#ffffff;align=center;rounded=1;shadow=0;comic=0;labelBackgroundColor=none;strokeWidth=1;fontFamily=Verdana;fontSize=12" vertex="1" parent="1">
          <mxGeometry x="380" y="160" width="140" height="80" as="geometry" />
        </mxCell>
        <mxCell id="ulJ9a3InAOpKc86OXInD-8" value="Property Listings Management" style="text;html=1;strokeColor=none;fillColor=none;spacingLeft=4;spacingRight=4;whiteSpace=wrap;overflow=hidden;rotatable=0;points=[[0,0.5],[1,0.5]];portConstraint=eastwest;align=center;" vertex="1" parent="ulJ9a3InAOpKc86OXInD-7">
          <mxGeometry y="26" width="140" height="44" as="geometry" />
        </mxCell>
        <mxCell id="ulJ9a3InAOpKc86OXInD-9" value="Properties Database" style="html=1;rounded=0;shadow=0;comic=0;labelBackgroundColor=none;strokeWidth=2;fontFamily=Verdana;fontSize=12;align=center;shape=mxgraph.ios7ui.horLines;" vertex="1" parent="1">
          <mxGeometry x="760" y="200" width="135" height="50" as="geometry" />
        </mxCell>
        <mxCell id="ulJ9a3InAOpKc86OXInD-10" value="1.3" style="swimlane;html=1;fontStyle=0;childLayout=stackLayout;horizontal=1;startSize=26;fillColor=#e0e0e0;horizontalStack=0;resizeParent=1;resizeLast=0;collapsible=1;marginBottom=0;swimlaneFillColor=#ffffff;align=center;rounded=1;shadow=0;comic=0;labelBackgroundColor=none;strokeWidth=1;fontFamily=Verdana;fontSize=12" vertex="1" parent="1">
          <mxGeometry x="380" y="280" width="140" height="52" as="geometry" />
        </mxCell>
        <mxCell id="ulJ9a3InAOpKc86OXInD-11" value="Search and Filtering" style="text;html=1;strokeColor=none;fillColor=none;spacingLeft=4;spacingRight=4;whiteSpace=wrap;overflow=hidden;rotatable=0;points=[[0,0.5],[1,0.5]];portConstraint=eastwest;align=center;" vertex="1" parent="ulJ9a3InAOpKc86OXInD-10">
          <mxGeometry y="26" width="140" height="26" as="geometry" />
        </mxCell>
        <mxCell id="ulJ9a3InAOpKc86OXInD-12" value="1.4" style="swimlane;html=1;fontStyle=0;childLayout=stackLayout;horizontal=1;startSize=26;fillColor=#e0e0e0;horizontalStack=0;resizeParent=1;resizeLast=0;collapsible=1;marginBottom=0;swimlaneFillColor=#ffffff;align=center;rounded=1;shadow=0;comic=0;labelBackgroundColor=none;strokeWidth=1;fontFamily=Verdana;fontSize=12" vertex="1" parent="1">
          <mxGeometry x="380" y="370" width="140" height="52" as="geometry" />
        </mxCell>
        <mxCell id="ulJ9a3InAOpKc86OXInD-13" value="Search and Filtering" style="text;html=1;strokeColor=none;fillColor=none;spacingLeft=4;spacingRight=4;whiteSpace=wrap;overflow=hidden;rotatable=0;points=[[0,0.5],[1,0.5]];portConstraint=eastwest;align=center;" vertex="1" parent="ulJ9a3InAOpKc86OXInD-12">
          <mxGeometry y="26" width="140" height="26" as="geometry" />
        </mxCell>
        <mxCell id="ulJ9a3InAOpKc86OXInD-14" value="Booking Data" style="html=1;rounded=0;shadow=0;comic=0;labelBackgroundColor=none;strokeWidth=2;fontFamily=Verdana;fontSize=12;align=center;shape=mxgraph.ios7ui.horLines;" vertex="1" parent="1">
          <mxGeometry x="760" y="350" width="135" height="50" as="geometry" />
        </mxCell>
        <mxCell id="ulJ9a3InAOpKc86OXInD-15" value="Payments Database" style="html=1;rounded=0;shadow=0;comic=0;labelBackgroundColor=none;strokeWidth=2;fontFamily=Verdana;fontSize=12;align=center;shape=mxgraph.ios7ui.horLines;" vertex="1" parent="1">
          <mxGeometry x="770" y="490" width="135" height="50" as="geometry" />
        </mxCell>
        <mxCell id="ulJ9a3InAOpKc86OXInD-16" value="Reviews Database" style="html=1;rounded=0;shadow=0;comic=0;labelBackgroundColor=none;strokeWidth=2;fontFamily=Verdana;fontSize=12;align=center;shape=mxgraph.ios7ui.horLines;" vertex="1" parent="1">
          <mxGeometry x="780" y="622" width="135" height="50" as="geometry" />
        </mxCell>
        <mxCell id="ulJ9a3InAOpKc86OXInD-17" value="1.5" style="swimlane;html=1;fontStyle=0;childLayout=stackLayout;horizontal=1;startSize=26;fillColor=#e0e0e0;horizontalStack=0;resizeParent=1;resizeLast=0;collapsible=1;marginBottom=0;swimlaneFillColor=#ffffff;align=center;rounded=1;shadow=0;comic=0;labelBackgroundColor=none;strokeWidth=1;fontFamily=Verdana;fontSize=12" vertex="1" parent="1">
          <mxGeometry x="400" y="470" width="140" height="52" as="geometry" />
        </mxCell>
        <mxCell id="ulJ9a3InAOpKc86OXInD-18" value="Booking Management" style="text;html=1;strokeColor=none;fillColor=none;spacingLeft=4;spacingRight=4;whiteSpace=wrap;overflow=hidden;rotatable=0;points=[[0,0.5],[1,0.5]];portConstraint=eastwest;align=center;" vertex="1" parent="ulJ9a3InAOpKc86OXInD-17">
          <mxGeometry y="26" width="140" height="26" as="geometry" />
        </mxCell>
        <mxCell id="ulJ9a3InAOpKc86OXInD-19" value="1.6" style="swimlane;html=1;fontStyle=0;childLayout=stackLayout;horizontal=1;startSize=26;fillColor=#e0e0e0;horizontalStack=0;resizeParent=1;resizeLast=0;collapsible=1;marginBottom=0;swimlaneFillColor=#ffffff;align=center;rounded=1;shadow=0;comic=0;labelBackgroundColor=none;strokeWidth=1;fontFamily=Verdana;fontSize=12" vertex="1" parent="1">
          <mxGeometry x="380" y="570" width="140" height="52" as="geometry" />
        </mxCell>
        <mxCell id="ulJ9a3InAOpKc86OXInD-20" value="Payment Processing" style="text;html=1;strokeColor=none;fillColor=none;spacingLeft=4;spacingRight=4;whiteSpace=wrap;overflow=hidden;rotatable=0;points=[[0,0.5],[1,0.5]];portConstraint=eastwest;align=center;" vertex="1" parent="ulJ9a3InAOpKc86OXInD-19">
          <mxGeometry y="26" width="140" height="26" as="geometry" />
        </mxCell>
        <mxCell id="ulJ9a3InAOpKc86OXInD-47" style="edgeStyle=orthogonalEdgeStyle;rounded=0;orthogonalLoop=1;jettySize=auto;html=1;exitX=1;exitY=0.25;exitDx=0;exitDy=0;" edge="1" parent="1" source="ulJ9a3InAOpKc86OXInD-21" target="ulJ9a3InAOpKc86OXInD-16">
          <mxGeometry relative="1" as="geometry" />
        </mxCell>
        <mxCell id="ulJ9a3InAOpKc86OXInD-21" value="1.7" style="swimlane;html=1;fontStyle=0;childLayout=stackLayout;horizontal=1;startSize=26;fillColor=#e0e0e0;horizontalStack=0;resizeParent=1;resizeLast=0;collapsible=1;marginBottom=0;swimlaneFillColor=#ffffff;align=center;rounded=1;shadow=0;comic=0;labelBackgroundColor=none;strokeWidth=1;fontFamily=Verdana;fontSize=12" vertex="1" parent="1">
          <mxGeometry x="380" y="660" width="140" height="60" as="geometry" />
        </mxCell>
        <mxCell id="ulJ9a3InAOpKc86OXInD-22" value="Review and Rating System" style="text;html=1;strokeColor=none;fillColor=none;spacingLeft=4;spacingRight=4;whiteSpace=wrap;overflow=hidden;rotatable=0;points=[[0,0.5],[1,0.5]];portConstraint=eastwest;align=center;" vertex="1" parent="ulJ9a3InAOpKc86OXInD-21">
          <mxGeometry y="26" width="140" height="34" as="geometry" />
        </mxCell>
        <mxCell id="ulJ9a3InAOpKc86OXInD-23" value="1.8" style="swimlane;html=1;fontStyle=0;childLayout=stackLayout;horizontal=1;startSize=26;fillColor=#e0e0e0;horizontalStack=0;resizeParent=1;resizeLast=0;collapsible=1;marginBottom=0;swimlaneFillColor=#ffffff;align=center;rounded=1;shadow=0;comic=0;labelBackgroundColor=none;strokeWidth=1;fontFamily=Verdana;fontSize=12" vertex="1" parent="1">
          <mxGeometry x="380" y="760" width="140" height="60" as="geometry" />
        </mxCell>
        <mxCell id="ulJ9a3InAOpKc86OXInD-24" value="Admin Dashboard" style="text;html=1;strokeColor=none;fillColor=none;spacingLeft=4;spacingRight=4;whiteSpace=wrap;overflow=hidden;rotatable=0;points=[[0,0.5],[1,0.5]];portConstraint=eastwest;align=center;" vertex="1" parent="ulJ9a3InAOpKc86OXInD-23">
          <mxGeometry y="26" width="140" height="34" as="geometry" />
        </mxCell>
        <mxCell id="ulJ9a3InAOpKc86OXInD-27" style="edgeStyle=orthogonalEdgeStyle;rounded=0;orthogonalLoop=1;jettySize=auto;html=1;exitX=1;exitY=0.25;exitDx=0;exitDy=0;entryX=1.004;entryY=0.448;entryDx=0;entryDy=0;entryPerimeter=0;" edge="1" parent="1" source="ulJ9a3InAOpKc86OXInD-23" target="ulJ9a3InAOpKc86OXInD-1">
          <mxGeometry relative="1" as="geometry">
            <Array as="points">
              <mxPoint x="520" y="720" />
              <mxPoint x="908" y="720" />
              <mxPoint x="908" y="88" />
            </Array>
          </mxGeometry>
        </mxCell>
        <mxCell id="ulJ9a3InAOpKc86OXInD-25" value="1.9" style="swimlane;html=1;fontStyle=0;childLayout=stackLayout;horizontal=1;startSize=26;fillColor=#e0e0e0;horizontalStack=0;resizeParent=1;resizeLast=0;collapsible=1;marginBottom=0;swimlaneFillColor=#ffffff;align=center;rounded=1;shadow=0;comic=0;labelBackgroundColor=none;strokeWidth=1;fontFamily=Verdana;fontSize=12" vertex="1" parent="1">
          <mxGeometry x="590" y="760" width="140" height="60" as="geometry" />
        </mxCell>
        <mxCell id="ulJ9a3InAOpKc86OXInD-26" value="Notifications System" style="text;html=1;strokeColor=none;fillColor=none;spacingLeft=4;spacingRight=4;whiteSpace=wrap;overflow=hidden;rotatable=0;points=[[0,0.5],[1,0.5]];portConstraint=eastwest;align=center;" vertex="1" parent="ulJ9a3InAOpKc86OXInD-25">
          <mxGeometry y="26" width="140" height="34" as="geometry" />
        </mxCell>
        <mxCell id="ulJ9a3InAOpKc86OXInD-28" style="edgeStyle=orthogonalEdgeStyle;rounded=0;orthogonalLoop=1;jettySize=auto;html=1;entryX=1.007;entryY=0.44;entryDx=0;entryDy=0;entryPerimeter=0;" edge="1" parent="1" target="ulJ9a3InAOpKc86OXInD-9">
          <mxGeometry relative="1" as="geometry">
            <mxPoint x="520" y="770" as="sourcePoint" />
            <Array as="points">
              <mxPoint x="520" y="720" />
              <mxPoint x="915" y="720" />
              <mxPoint x="915" y="222" />
            </Array>
          </mxGeometry>
        </mxCell>
        <mxCell id="ulJ9a3InAOpKc86OXInD-29" style="edgeStyle=orthogonalEdgeStyle;rounded=0;orthogonalLoop=1;jettySize=auto;html=1;exitX=1;exitY=0.25;exitDx=0;exitDy=0;entryX=1;entryY=0.46;entryDx=0;entryDy=0;entryPerimeter=0;" edge="1" parent="1" source="ulJ9a3InAOpKc86OXInD-23" target="ulJ9a3InAOpKc86OXInD-14">
          <mxGeometry relative="1" as="geometry">
            <Array as="points">
              <mxPoint x="520" y="720" />
              <mxPoint x="915" y="720" />
              <mxPoint x="915" y="373" />
            </Array>
          </mxGeometry>
        </mxCell>
        <mxCell id="ulJ9a3InAOpKc86OXInD-30" style="edgeStyle=orthogonalEdgeStyle;rounded=0;orthogonalLoop=1;jettySize=auto;html=1;entryX=0.993;entryY=0.54;entryDx=0;entryDy=0;entryPerimeter=0;" edge="1" parent="1" target="ulJ9a3InAOpKc86OXInD-15">
          <mxGeometry relative="1" as="geometry">
            <mxPoint x="520" y="770" as="sourcePoint" />
            <Array as="points">
              <mxPoint x="520" y="720" />
              <mxPoint x="925" y="720" />
              <mxPoint x="925" y="517" />
            </Array>
          </mxGeometry>
        </mxCell>
        <mxCell id="ulJ9a3InAOpKc86OXInD-32" style="edgeStyle=orthogonalEdgeStyle;rounded=0;orthogonalLoop=1;jettySize=auto;html=1;entryX=1.007;entryY=0.4;entryDx=0;entryDy=0;entryPerimeter=0;" edge="1" parent="1" target="ulJ9a3InAOpKc86OXInD-16">
          <mxGeometry relative="1" as="geometry">
            <mxPoint x="520" y="770" as="sourcePoint" />
            <Array as="points">
              <mxPoint x="520" y="720" />
              <mxPoint x="935" y="720" />
              <mxPoint x="935" y="642" />
            </Array>
          </mxGeometry>
        </mxCell>
        <mxCell id="ulJ9a3InAOpKc86OXInD-33" style="edgeStyle=orthogonalEdgeStyle;rounded=0;orthogonalLoop=1;jettySize=auto;html=1;exitX=1;exitY=1;exitDx=0;exitDy=0;entryX=0.743;entryY=1.029;entryDx=0;entryDy=0;entryPerimeter=0;" edge="1" parent="1" source="ulJ9a3InAOpKc86OXInD-6" target="ulJ9a3InAOpKc86OXInD-24">
          <mxGeometry relative="1" as="geometry" />
        </mxCell>
        <mxCell id="ulJ9a3InAOpKc86OXInD-37" style="edgeStyle=orthogonalEdgeStyle;rounded=0;orthogonalLoop=1;jettySize=auto;html=1;exitX=1;exitY=0.5;exitDx=0;exitDy=0;entryX=0.145;entryY=0.638;entryDx=0;entryDy=0;entryPerimeter=0;" edge="1" parent="1" source="ulJ9a3InAOpKc86OXInD-4" target="ulJ9a3InAOpKc86OXInD-1">
          <mxGeometry relative="1" as="geometry" />
        </mxCell>
        <mxCell id="ulJ9a3InAOpKc86OXInD-38" style="edgeStyle=orthogonalEdgeStyle;rounded=0;orthogonalLoop=1;jettySize=auto;html=1;exitX=1;exitY=0.25;exitDx=0;exitDy=0;entryX=0.014;entryY=0.818;entryDx=0;entryDy=0;entryPerimeter=0;" edge="1" parent="1" source="ulJ9a3InAOpKc86OXInD-5" target="ulJ9a3InAOpKc86OXInD-8">
          <mxGeometry relative="1" as="geometry">
            <Array as="points">
              <mxPoint x="240" y="243" />
              <mxPoint x="240" y="222" />
            </Array>
          </mxGeometry>
        </mxCell>
        <mxCell id="ulJ9a3InAOpKc86OXInD-39" style="edgeStyle=orthogonalEdgeStyle;rounded=0;orthogonalLoop=1;jettySize=auto;html=1;exitX=1;exitY=0.5;exitDx=0;exitDy=0;entryX=0.015;entryY=0.56;entryDx=0;entryDy=0;entryPerimeter=0;" edge="1" parent="1" source="ulJ9a3InAOpKc86OXInD-8" target="ulJ9a3InAOpKc86OXInD-9">
          <mxGeometry relative="1" as="geometry" />
        </mxCell>
        <mxCell id="ulJ9a3InAOpKc86OXInD-41" style="edgeStyle=orthogonalEdgeStyle;rounded=0;orthogonalLoop=1;jettySize=auto;html=1;exitX=1;exitY=0.5;exitDx=0;exitDy=0;entryX=0;entryY=0.2;entryDx=0;entryDy=0;entryPerimeter=0;" edge="1" parent="1" source="ulJ9a3InAOpKc86OXInD-10" target="ulJ9a3InAOpKc86OXInD-9">
          <mxGeometry relative="1" as="geometry" />
        </mxCell>
        <mxCell id="ulJ9a3InAOpKc86OXInD-42" style="edgeStyle=orthogonalEdgeStyle;rounded=0;orthogonalLoop=1;jettySize=auto;html=1;exitX=1;exitY=1;exitDx=0;exitDy=0;entryX=-0.007;entryY=0.231;entryDx=0;entryDy=0;entryPerimeter=0;" edge="1" parent="1" source="ulJ9a3InAOpKc86OXInD-2" target="ulJ9a3InAOpKc86OXInD-18">
          <mxGeometry relative="1" as="geometry">
            <Array as="points">
              <mxPoint x="210" y="112" />
              <mxPoint x="210" y="507" />
            </Array>
          </mxGeometry>
        </mxCell>
        <mxCell id="ulJ9a3InAOpKc86OXInD-43" style="edgeStyle=orthogonalEdgeStyle;rounded=0;orthogonalLoop=1;jettySize=auto;html=1;exitX=1;exitY=0;exitDx=0;exitDy=0;entryX=0.007;entryY=0.4;entryDx=0;entryDy=0;entryPerimeter=0;" edge="1" parent="1" source="ulJ9a3InAOpKc86OXInD-17" target="ulJ9a3InAOpKc86OXInD-14">
          <mxGeometry relative="1" as="geometry" />
        </mxCell>
        <mxCell id="ulJ9a3InAOpKc86OXInD-44" style="edgeStyle=orthogonalEdgeStyle;rounded=0;orthogonalLoop=1;jettySize=auto;html=1;exitX=1;exitY=0.25;exitDx=0;exitDy=0;entryX=0;entryY=0.6;entryDx=0;entryDy=0;entryPerimeter=0;" edge="1" parent="1" source="ulJ9a3InAOpKc86OXInD-19" target="ulJ9a3InAOpKc86OXInD-15">
          <mxGeometry relative="1" as="geometry" />
        </mxCell>
        <mxCell id="ulJ9a3InAOpKc86OXInD-45" style="edgeStyle=orthogonalEdgeStyle;rounded=0;orthogonalLoop=1;jettySize=auto;html=1;exitX=1;exitY=1;exitDx=0;exitDy=0;entryX=0;entryY=0.154;entryDx=0;entryDy=0;entryPerimeter=0;" edge="1" parent="1" source="ulJ9a3InAOpKc86OXInD-2" target="ulJ9a3InAOpKc86OXInD-20">
          <mxGeometry relative="1" as="geometry">
            <Array as="points">
              <mxPoint x="260" y="112" />
              <mxPoint x="260" y="600" />
            </Array>
          </mxGeometry>
        </mxCell>
        <mxCell id="ulJ9a3InAOpKc86OXInD-51" style="edgeStyle=orthogonalEdgeStyle;rounded=0;orthogonalLoop=1;jettySize=auto;html=1;exitX=1;exitY=1;exitDx=0;exitDy=0;entryX=0.9;entryY=-0.017;entryDx=0;entryDy=0;entryPerimeter=0;" edge="1" parent="1" source="ulJ9a3InAOpKc86OXInD-5" target="ulJ9a3InAOpKc86OXInD-25">
          <mxGeometry relative="1" as="geometry" />
        </mxCell>
      </root>
    </mxGraphModel>
  </diagram>
</mxfile>
